<svg version="1.1" id="Layer_1" xmlns="http://www.w3.org/2000/svg" xmlns:xlink="http://www.w3.org/1999/xlink" x="0px" y="0px"
	 width="100%" viewBox="0 0 512 512" enable-background="new 0 0 512 512" xml:space="preserve">
<path fill="#343A40" opacity="1.000000" stroke="none" 
	d="
M513.000000,206.000000 
	C513.000000,239.687561 513.000000,273.375122 512.636230,307.621277 
	C511.875427,308.868378 511.259979,309.513397 511.113007,310.251648 
	C506.113647,335.364258 497.213409,359.018768 485.226562,381.631470 
	C473.693695,403.387604 459.110474,422.919769 441.752472,440.163391 
	C431.210907,450.635468 419.479553,460.076141 407.470612,468.871368 
	C379.647034,489.248932 348.559509,502.683960 314.869141,510.121735 
	C312.483856,510.648315 310.285339,512.020813 308.000000,513.000000 
	C274.312439,513.000000 240.624878,513.000000 206.378815,512.636108 
	C205.132263,511.874969 204.487396,511.257141 203.749817,511.112701 
	C186.091324,507.654938 169.069504,502.166077 152.586166,495.006012 
	C126.959885,483.874329 103.471466,469.290131 82.932976,450.313324 
	C64.821938,433.579376 48.636139,415.160797 35.888336,393.865082 
	C21.717356,370.191895 10.793039,345.249268 4.776061,318.232178 
	C3.992879,314.715546 2.281465,311.405640 1.000000,308.000000 
	C1.000000,274.312439 1.000000,240.624878 1.362634,206.380707 
	C2.167131,204.806763 2.801568,203.829498 3.022874,202.766235 
	C9.626745,171.037399 21.847229,141.581635 39.426540,114.426590 
	C52.672756,93.964943 68.896156,76.042068 87.298180,60.013649 
	C101.135437,47.961197 116.138069,37.710205 132.195236,28.922127 
	C154.347733,16.798079 177.910904,8.522503 202.509659,3.029139 
	C203.761703,2.749531 204.840530,1.694173 206.000000,1.000001 
	C239.687561,1.000000 273.375122,1.000000 307.619232,1.362653 
	C309.193115,2.167184 310.170380,2.800792 311.233612,3.023071 
	C342.784149,9.619004 372.141785,21.664562 399.158325,39.156311 
	C423.891266,55.169586 445.059570,75.130653 463.096252,98.476425 
	C486.318939,128.534668 501.769531,162.147217 510.119049,199.131195 
	C510.657440,201.516052 512.020569,203.714722 513.000000,206.000000 
M447.143219,135.373718 
	C446.754883,134.561646 446.366547,133.749588 446.016144,132.986526 
	C446.016144,132.986526 446.054169,133.035507 445.771362,132.429230 
	C444.829529,131.607666 443.887665,130.786087 442.987488,130.010941 
	C442.987488,130.010941 443.029053,130.057449 443.112427,129.346878 
	C442.393066,128.550140 441.673706,127.753410 440.991943,127.006752 
	C440.991943,127.006752 441.029419,127.056908 441.121521,126.321304 
	C440.743347,125.413078 440.533691,124.378761 439.962280,123.615105 
	C426.466370,105.578079 411.100342,89.373466 392.916687,75.968269 
	C376.948517,64.196335 360.004272,54.229324 341.559540,46.680008 
	C319.226440,37.539188 296.058228,31.772375 272.128632,30.302940 
	C257.462402,29.402338 242.561295,30.636623 227.878632,32.069660 
	C202.311066,34.565071 178.199951,42.730209 155.493454,54.420349 
	C131.916626,66.558571 110.819611,82.144493 92.537422,101.704742 
	C72.875687,122.740974 57.470676,146.273605 46.654957,172.848846 
	C36.429478,197.973801 30.317003,224.043381 30.063583,251.274536 
	C29.981745,260.068268 30.491980,268.878601 31.014688,277.664490 
	C31.986488,293.998901 35.771542,309.805176 40.758808,325.315155 
	C49.338257,351.996552 62.629776,376.159149 80.030739,398.121613 
	C94.903145,416.892700 112.420425,432.764618 132.277512,446.041107 
	C152.022308,459.242493 173.336655,469.172668 196.236176,475.592224 
	C212.576569,480.173004 229.186798,483.252625 246.169342,483.984131 
	C267.537720,484.904541 288.674530,483.070374 309.431915,477.834229 
	C317.791809,475.725464 325.997223,473.004120 334.272949,470.561554 
	C334.173462,470.126770 334.074005,469.691986 333.974548,469.257233 
	C314.088470,475.011658 294.154327,475.310089 273.451843,469.857605 
	C273.451843,471.577057 273.451843,473.019806 273.451843,474.961182 
	C264.026611,474.961182 254.273865,474.961182 244.521103,474.961182 
	C244.519409,475.331207 244.517715,475.701263 244.516006,476.071289 
	C253.800827,476.071289 263.085663,476.071289 272.370483,476.071289 
	C267.774139,477.411896 263.144196,478.176910 258.575256,477.907471 
	C246.663589,477.205017 234.723511,476.485199 222.893814,474.989166 
	C192.250839,471.113892 164.140976,460.149048 138.082581,443.688477 
	C116.677834,430.167511 98.293892,413.289246 82.316238,393.740570 
	C69.745842,378.360657 59.308567,361.668732 51.576740,343.309906 
	C44.440170,326.364471 39.586086,308.869324 37.835667,290.521057 
	C36.400196,275.474182 35.033802,260.376892 38.767143,245.534805 
	C45.953804,216.963898 61.617527,193.646225 83.348495,173.940201 
	C103.592804,155.582336 128.053223,148.222839 154.333405,146.267654 
	C168.193542,145.236496 182.263336,146.224457 196.189133,147.092438 
	C211.000031,148.015564 225.423004,151.425522 239.149597,157.146255 
	C246.941238,160.393524 254.421463,164.387970 261.992249,168.008865 
	C261.992249,168.008865 261.942596,167.971802 262.283478,168.581100 
	C263.874786,169.396790 265.466095,170.212479 267.005463,170.992020 
	C267.005463,170.992020 266.953613,170.955811 267.147278,171.712738 
	C268.284821,172.147522 269.422333,172.582306 270.840576,173.305298 
	C271.218292,173.686295 271.596008,174.067291 271.926117,175.246964 
	C273.450500,176.499634 274.974884,177.752319 276.987030,179.319656 
	C278.141174,180.868607 279.295288,182.417542 280.845642,184.592194 
	C281.570282,185.581390 282.294891,186.570587 283.369751,187.900543 
	C284.062012,188.591431 284.754303,189.282318 285.872589,190.537857 
	C286.598419,191.038483 287.324219,191.539124 288.010254,191.991409 
	C288.010254,191.991409 287.970612,191.942993 287.880310,192.684250 
	C289.625397,195.676361 291.455200,198.622803 293.098114,201.669983 
	C296.598785,208.162872 300.594788,214.540253 299.117157,223.747208 
	C296.478027,222.597473 294.254822,221.892563 292.321167,220.712952 
	C290.356110,219.514191 288.762665,217.722885 286.858246,216.405396 
	C272.629303,206.561722 257.379272,201.307144 240.569397,208.846771 
	C228.776535,214.136169 217.471619,220.535263 206.082626,226.686584 
	C203.541550,228.059052 201.561005,230.469330 199.201004,232.506577 
	C202.450104,232.714951 205.789078,231.985550 207.086731,233.288773 
	C208.284134,234.491302 208.004776,238.170273 207.144470,240.248810 
	C202.353546,251.823853 202.533844,263.461670 205.615814,275.348083 
	C212.191864,300.710144 226.978012,320.597229 246.147598,337.881165 
	C266.472443,356.206696 289.719391,368.511200 316.367279,374.686615 
	C336.936676,379.453400 357.562836,382.523926 378.369598,376.852661 
	C392.295868,373.056824 405.938934,368.231598 419.823090,364.267578 
	C426.443176,362.377502 433.292572,361.139404 440.121490,360.237976 
	C441.831635,360.012238 445.473907,362.232422 445.470764,363.320526 
	C445.456940,368.137085 445.802429,373.765961 443.510132,377.602417 
	C438.089874,386.673889 431.822235,395.404388 424.826904,403.327759 
	C415.939819,413.393921 406.011658,422.542938 396.494934,432.049896 
	C393.901978,434.640198 391.174500,437.095825 388.508759,439.613281 
	C388.791748,439.913025 389.074707,440.212769 389.357666,440.512543 
	C406.847961,428.519135 421.777985,413.746704 434.839661,397.136505 
	C447.196136,381.423004 457.555054,364.422333 465.512695,346.008301 
	C475.880493,322.017181 482.439789,296.988464 483.740509,270.944397 
	C484.457703,256.584198 483.318939,242.040390 481.921997,227.685898 
	C479.566315,203.480164 471.567413,180.787567 461.334351,158.858566 
	C460.634583,157.359009 459.100464,156.248795 457.988037,155.010147 
	C457.988037,155.010147 458.021576,155.062851 458.135712,154.375961 
	C457.748138,153.565659 457.360596,152.755371 457.003448,151.997208 
	C457.003448,151.997208 457.033966,152.049316 456.918976,151.337967 
	C455.604401,148.871567 454.289825,146.405167 453.014313,143.987946 
	C453.014313,143.987946 453.053375,144.037094 452.770721,143.406937 
	C451.496033,141.925598 450.221344,140.444260 448.986267,139.011597 
	C448.986267,139.011597 449.025726,139.060364 449.117126,138.348663 
	C448.393951,137.552704 447.670776,136.756729 446.984741,136.011612 
	C446.984741,136.011612 447.021820,136.062485 447.143219,135.373718 
M378.535004,447.928558 
	C378.785248,447.570892 379.035492,447.213226 379.285767,446.855530 
	C378.620850,447.050812 377.955933,447.246094 377.096680,447.703308 
	C377.096985,447.954742 377.097290,448.206177 377.097565,448.457611 
	C377.421265,448.334076 377.744995,448.210541 378.535004,447.928558 
M161.492126,291.016998 
	C167.142776,278.847137 172.793411,266.677277 178.444061,254.507416 
	C174.418503,259.710571 170.619415,265.209503 167.527649,271.080933 
	C153.676468,297.385040 148.679703,325.271820 151.887100,354.919922 
	C153.910614,373.624573 168.291168,407.906952 177.063324,412.058838 
	C155.343231,374.155701 148.703522,334.219177 161.492126,291.016998 
M196.935379,234.694305 
	C192.630630,238.556152 188.325882,242.417999 184.021133,246.279846 
	C184.608719,246.857346 185.196304,247.434830 185.783905,248.012314 
	C189.630096,243.710358 193.476288,239.408386 196.935379,234.694305 
M226.431229,453.170746 
	C231.241760,455.390015 236.052292,457.609283 240.862823,459.828552 
	C241.033478,459.448517 241.204117,459.068512 241.374771,458.688477 
	C235.034744,455.535126 228.694702,452.381775 222.354675,449.228394 
	C222.140610,449.633240 221.926544,450.038116 221.712479,450.442963 
	C223.065155,451.263214 224.417831,452.083466 226.431229,453.170746 
M212.411362,445.192505 
	C214.488434,446.352814 216.565506,447.513153 218.642578,448.673462 
	C218.855789,448.254730 219.069000,447.836029 219.282227,447.417297 
	C215.992294,445.360748 212.702362,443.304230 209.412430,441.247681 
	C209.181915,441.572357 208.951401,441.897034 208.720886,442.221710 
	C209.748199,443.116974 210.775513,444.012207 212.411362,445.192505 
M165.172577,147.998474 
	C170.588562,147.998474 176.004562,147.998474 181.420547,147.998474 
	C181.417389,147.759384 181.414246,147.520309 181.411087,147.281219 
	C174.793686,147.281219 168.176285,147.281219 161.558899,147.281219 
	C161.552094,147.463165 161.545303,147.645126 161.538498,147.827072 
	C162.493073,147.883484 163.447632,147.939896 165.172577,147.998474 
M202.825821,438.884949 
	C203.883972,439.406128 204.942123,439.927338 206.000275,440.448517 
	C206.216568,440.112091 206.432877,439.775635 206.649170,439.439209 
	C205.340103,438.513641 204.031052,437.588074 202.721970,436.662506 
	C202.589310,437.297180 202.456650,437.931885 202.825821,438.884949 
M182.872696,251.487808 
	C182.836777,250.858002 182.800842,250.228195 182.764923,249.598389 
	C182.041367,250.324585 181.317810,251.050766 180.594254,251.776947 
	C181.225128,251.809509 181.855988,251.842072 182.872696,251.487808 
M385.433685,443.496613 
	C385.771759,443.032776 386.109833,442.568909 386.447906,442.105072 
	C386.090942,441.939270 385.733978,441.773438 385.377045,441.607605 
	C385.224243,442.214722 385.071442,442.821808 385.433685,443.496613 
M191.254517,427.125397 
	C190.734329,427.019592 190.214142,426.913788 189.693954,426.807983 
	C189.766083,427.216888 189.838196,427.625824 189.910309,428.034729 
	C190.440506,427.878052 190.970703,427.721375 191.254517,427.125397 
M178.805954,414.501923 
	C178.868912,414.834167 178.931870,415.166412 178.994812,415.498657 
	C179.070084,415.169067 179.145355,414.839508 178.805954,414.501923 
M184.805969,421.501923 
	C184.868927,421.834167 184.931885,422.166412 184.994843,422.498657 
	C185.070114,422.169098 185.145386,421.839508 184.805969,421.501923 
M198.498795,433.807312 
	C198.166840,433.869415 197.834900,433.931519 197.502945,433.993622 
	C197.832169,434.069611 198.161407,434.145630 198.498795,433.807312 
M382.480316,445.223694 
	C382.203033,445.029572 381.925751,444.835480 381.648438,444.641388 
	C381.826538,444.928650 382.004669,445.215942 382.480316,445.223694 
z"/>
<path fill="#000000" opacity="1.000000" stroke="none" 
	d="
M205.531342,1.000001 
	C204.840530,1.694173 203.761703,2.749531 202.509659,3.029139 
	C177.910904,8.522503 154.347733,16.798079 132.195236,28.922127 
	C116.138069,37.710205 101.135437,47.961197 87.298180,60.013649 
	C68.896156,76.042068 52.672756,93.964943 39.426540,114.426590 
	C21.847229,141.581635 9.626745,171.037399 3.022874,202.766235 
	C2.801568,203.829498 2.167131,204.806763 1.362634,205.912048 
	C1.000000,137.739624 1.000000,69.479263 1.000000,1.000000 
	C69.020737,1.000000 137.041718,1.000000 205.531342,1.000001 
z"/>
<path fill="#000000" opacity="1.000000" stroke="none" 
	d="
M1.000000,308.468658 
	C2.281465,311.405640 3.992879,314.715546 4.776061,318.232178 
	C10.793039,345.249268 21.717356,370.191895 35.888336,393.865082 
	C48.636139,415.160797 64.821938,433.579376 82.932976,450.313324 
	C103.471466,469.290131 126.959885,483.874329 152.586166,495.006012 
	C169.069504,502.166077 186.091324,507.654938 203.749817,511.112701 
	C204.487396,511.257141 205.132263,511.874969 205.910156,512.636108 
	C137.739639,513.000000 69.479286,513.000000 1.000000,513.000000 
	C1.000000,444.979248 1.000000,376.958282 1.000000,308.468658 
z"/>
<path fill="#000000" opacity="1.000000" stroke="none" 
	d="
M513.000000,205.531342 
	C512.020569,203.714722 510.657440,201.516052 510.119049,199.131195 
	C501.769531,162.147217 486.318939,128.534668 463.096252,98.476425 
	C445.059570,75.130653 423.891266,55.169586 399.158325,39.156311 
	C372.141785,21.664562 342.784149,9.619004 311.233612,3.023071 
	C310.170380,2.800792 309.193115,2.167184 308.087891,1.362653 
	C376.260345,1.000000 444.520721,1.000000 513.000000,1.000000 
	C513.000000,69.020737 513.000000,137.041718 513.000000,205.531342 
z"/>
<path fill="#000000" opacity="1.000000" stroke="none" 
	d="
M308.468658,513.000000 
	C310.285339,512.020813 312.483856,510.648315 314.869141,510.121735 
	C348.559509,502.683960 379.647034,489.248932 407.470612,468.871368 
	C419.479553,460.076141 431.210907,450.635468 441.752472,440.163391 
	C459.110474,422.919769 473.693695,403.387604 485.226562,381.631470 
	C497.213409,359.018768 506.113647,335.364258 511.113007,310.251648 
	C511.259979,309.513397 511.875427,308.868378 512.636230,308.089935 
	C513.000000,376.260345 513.000000,444.520721 513.000000,513.000000 
	C444.979248,513.000000 376.958282,513.000000 308.468658,513.000000 
z"/>
<path fill="#343A40" opacity="1.000000" stroke="none" 
	d="
M271.973724,174.448288 
	C271.596008,174.067291 271.218292,173.686295 270.434692,172.926788 
	C269.003754,172.017471 267.978668,171.486649 266.953613,170.955811 
	C266.953613,170.955811 267.005463,170.992020 266.861023,170.705444 
	C265.125244,169.603180 263.533905,168.787491 261.942596,167.971802 
	C261.942596,167.971802 261.992249,168.008865 261.987854,167.677765 
	C260.438232,166.133224 258.998199,164.747040 257.331970,163.732162 
	C231.791992,148.176376 203.434006,142.634689 174.144180,141.133820 
	C159.322052,140.374313 144.731705,143.106171 130.423248,147.092255 
	C108.257423,153.267288 88.400429,163.446701 72.261253,180.217209 
	C62.034405,190.844116 53.775726,202.785782 47.799831,216.275513 
	C46.659737,218.849106 44.896015,220.933640 42.182590,219.571762 
	C40.914188,218.935165 40.669613,216.136307 40.115864,214.271469 
	C39.946053,213.699615 40.232388,212.959305 40.407452,212.322983 
	C43.571014,200.824188 46.108101,189.104156 50.052597,177.878891 
	C59.529976,150.908112 74.392792,126.951073 93.694023,105.956444 
	C114.854340,82.939621 139.761841,64.961037 168.661285,52.643871 
	C194.153412,41.778919 220.690186,35.709095 248.370911,35.090061 
	C258.823212,34.856312 269.307892,35.476112 279.761414,36.021343 
	C297.278503,36.934982 314.249023,40.812962 330.782471,46.491001 
	C355.029938,54.818245 377.375977,66.793045 397.119263,83.190811 
	C405.891632,90.476700 414.011078,98.584320 422.097961,106.648796 
	C428.663300,113.195938 434.737457,120.235641 441.029419,127.056900 
	C441.029419,127.056908 440.991943,127.006752 441.033783,127.302551 
	C441.726776,128.418045 442.377930,129.237747 443.029053,130.057434 
	C443.029053,130.057449 442.987488,130.010941 443.108093,130.290863 
	C444.170532,131.392380 445.112366,132.213943 446.054169,133.035507 
	C446.054169,133.035507 446.016144,132.986526 445.936432,133.306488 
	C446.245087,134.438477 446.633453,135.250473 447.021820,136.062485 
	C447.021820,136.062485 446.984741,136.011612 447.093201,136.275574 
	C447.809692,137.379822 448.417694,138.220093 449.025726,139.060364 
	C449.025726,139.060364 448.986267,139.011597 449.107605,139.302460 
	C450.503754,141.074585 451.778564,142.555832 453.053375,144.037094 
	C453.053375,144.037094 453.014313,143.987946 452.946350,144.337006 
	C454.263580,147.140488 455.648773,149.594894 457.033997,152.049316 
	C457.033966,152.049316 457.003448,151.997208 457.014130,152.313049 
	C457.357086,153.440216 457.689331,154.251526 458.021576,155.062851 
	C458.021576,155.062851 457.988037,155.010147 458.034058,155.347015 
	C461.398743,164.889435 465.460815,173.903976 467.885162,183.339340 
	C473.345764,204.591553 474.436951,226.288773 472.003357,248.099564 
	C468.970123,275.284363 456.512085,297.092316 434.399078,313.351135 
	C414.968781,327.637451 392.662750,332.640076 369.185516,332.805969 
	C358.139099,332.884033 346.941223,331.705017 336.056274,329.741425 
	C319.632263,326.778625 304.423737,320.748657 293.044403,307.580658 
	C289.413574,303.379089 289.338440,299.447845 293.094971,295.383881 
	C305.340759,282.135803 309.256683,265.492065 309.392395,248.474548 
	C309.474701,238.158615 306.385315,227.380493 302.653809,217.598541 
	C299.184174,208.503189 292.974152,200.453201 287.970612,191.942993 
	C287.970612,191.942993 288.010254,191.991409 287.915802,191.661423 
	C287.029755,190.878693 286.238159,190.425949 285.446564,189.973206 
	C284.754303,189.282318 284.062012,188.591431 283.236298,187.308701 
	C282.218384,185.800064 281.333893,184.883286 280.449432,183.966492 
	C279.295288,182.417542 278.141174,180.868607 276.647827,178.807419 
	C274.863647,177.012878 273.418671,175.730591 271.973724,174.448288 
M165.153534,139.001526 
	C163.977203,139.098038 162.800888,139.194550 161.624557,139.291061 
	C161.639496,139.412521 161.654434,139.533997 161.669388,139.655457 
	C168.210510,139.655457 174.751633,139.655457 181.292770,139.655457 
	C181.290009,139.437180 181.287231,139.218903 181.284470,139.000626 
	C176.186325,139.000626 171.088196,139.000626 165.153534,139.001526 
z"/>
<path fill="#000000" opacity="1.000000" stroke="none" 
	d="
M287.925476,192.313629 
	C292.974152,200.453201 299.184174,208.503189 302.653809,217.598541 
	C306.385315,227.380493 309.474701,238.158615 309.392395,248.474548 
	C309.256683,265.492065 305.340759,282.135803 293.094971,295.383881 
	C289.338440,299.447845 289.413574,303.379089 293.044403,307.580658 
	C304.423737,320.748657 319.632263,326.778625 336.056274,329.741425 
	C346.941223,331.705017 358.139099,332.884033 369.185516,332.805969 
	C392.662750,332.640076 414.968781,327.637451 434.399078,313.351135 
	C456.512085,297.092316 468.970123,275.284363 472.003357,248.099564 
	C474.436951,226.288773 473.345764,204.591553 467.885162,183.339340 
	C465.460815,173.903976 461.398743,164.889435 458.017212,155.320694 
	C459.100464,156.248795 460.634583,157.359009 461.334351,158.858566 
	C471.567413,180.787567 479.566315,203.480164 481.921997,227.685898 
	C483.318939,242.040390 484.457703,256.584198 483.740509,270.944397 
	C482.439789,296.988464 475.880493,322.017181 465.512695,346.008301 
	C457.555054,364.422333 447.196136,381.423004 434.839661,397.136505 
	C421.777985,413.746704 406.847961,428.519135 389.357666,440.512543 
	C389.074707,440.212769 388.791748,439.913025 388.508759,439.613281 
	C391.174500,437.095825 393.901978,434.640198 396.494934,432.049896 
	C406.011658,422.542938 415.939819,413.393921 424.826904,403.327759 
	C431.822235,395.404388 438.089874,386.673889 443.510132,377.602417 
	C445.802429,373.765961 445.456940,368.137085 445.470764,363.320526 
	C445.473907,362.232422 441.831635,360.012238 440.121490,360.237976 
	C433.292572,361.139404 426.443176,362.377502 419.823090,364.267578 
	C405.938934,368.231598 392.295868,373.056824 378.369598,376.852661 
	C357.562836,382.523926 336.936676,379.453400 316.367279,374.686615 
	C289.719391,368.511200 266.472443,356.206696 246.147598,337.881165 
	C226.978012,320.597229 212.191864,300.710144 205.615814,275.348083 
	C202.533844,263.461670 202.353546,251.823853 207.144470,240.248810 
	C208.004776,238.170273 208.284134,234.491302 207.086731,233.288773 
	C205.789078,231.985550 202.450104,232.714951 199.201004,232.506577 
	C201.561005,230.469330 203.541550,228.059052 206.082626,226.686584 
	C217.471619,220.535263 228.776535,214.136169 240.569397,208.846771 
	C257.379272,201.307144 272.629303,206.561722 286.858246,216.405396 
	C288.762665,217.722885 290.356110,219.514191 292.321167,220.712952 
	C294.254822,221.892563 296.478027,222.597473 299.117157,223.747208 
	C300.594788,214.540253 296.598785,208.162872 293.098114,201.669983 
	C291.455200,198.622803 289.625397,195.676361 287.925476,192.313629 
z"/>
<path fill="#000000" opacity="1.000000" stroke="none" 
	d="
M441.075500,126.689102 
	C434.737457,120.235641 428.663300,113.195938 422.097961,106.648796 
	C414.011078,98.584320 405.891632,90.476700 397.119263,83.190811 
	C377.375977,66.793045 355.029938,54.818245 330.782471,46.491001 
	C314.249023,40.812962 297.278503,36.934982 279.761414,36.021343 
	C269.307892,35.476112 258.823212,34.856312 248.370911,35.090061 
	C220.690186,35.709095 194.153412,41.778919 168.661285,52.643871 
	C139.761841,64.961037 114.854340,82.939621 93.694023,105.956444 
	C74.392792,126.951073 59.529976,150.908112 50.052597,177.878891 
	C46.108101,189.104156 43.571014,200.824188 40.407452,212.322983 
	C40.232388,212.959305 39.946053,213.699615 40.115864,214.271469 
	C40.669613,216.136307 40.914188,218.935165 42.182590,219.571762 
	C44.896015,220.933640 46.659737,218.849106 47.799831,216.275513 
	C53.775726,202.785782 62.034405,190.844116 72.261253,180.217209 
	C88.400429,163.446701 108.257423,153.267288 130.423248,147.092255 
	C144.731705,143.106171 159.322052,140.374313 174.144180,141.133820 
	C203.434006,142.634689 231.791992,148.176376 257.331970,163.732162 
	C258.998199,164.747040 260.438232,166.133224 262.012695,167.696304 
	C254.421463,164.387970 246.941238,160.393524 239.149597,157.146255 
	C225.423004,151.425522 211.000031,148.015564 196.189133,147.092438 
	C182.263336,146.224457 168.193542,145.236496 154.333405,146.267654 
	C128.053223,148.222839 103.592804,155.582336 83.348495,173.940201 
	C61.617527,193.646225 45.953804,216.963898 38.767143,245.534805 
	C35.033802,260.376892 36.400196,275.474182 37.835667,290.521057 
	C39.586086,308.869324 44.440170,326.364471 51.576740,343.309906 
	C59.308567,361.668732 69.745842,378.360657 82.316238,393.740570 
	C98.293892,413.289246 116.677834,430.167511 138.082581,443.688477 
	C164.140976,460.149048 192.250839,471.113892 222.893814,474.989166 
	C234.723511,476.485199 246.663589,477.205017 258.575256,477.907471 
	C263.144196,478.176910 267.774139,477.411896 272.370483,476.071289 
	C263.085663,476.071289 253.800827,476.071289 244.516006,476.071289 
	C244.517715,475.701263 244.519409,475.331207 244.521103,474.961182 
	C254.273865,474.961182 264.026611,474.961182 273.451843,474.961182 
	C273.451843,473.019806 273.451843,471.577057 273.451843,469.857605 
	C294.154327,475.310089 314.088470,475.011658 333.974548,469.257233 
	C334.074005,469.691986 334.173462,470.126770 334.272949,470.561554 
	C325.997223,473.004120 317.791809,475.725464 309.431915,477.834229 
	C288.674530,483.070374 267.537720,484.904541 246.169342,483.984131 
	C229.186798,483.252625 212.576569,480.173004 196.236176,475.592224 
	C173.336655,469.172668 152.022308,459.242493 132.277512,446.041107 
	C112.420425,432.764618 94.903145,416.892700 80.030739,398.121613 
	C62.629776,376.159149 49.338257,351.996552 40.758808,325.315155 
	C35.771542,309.805176 31.986488,293.998901 31.014688,277.664490 
	C30.491980,268.878601 29.981745,260.068268 30.063583,251.274536 
	C30.317003,224.043381 36.429478,197.973801 46.654957,172.848846 
	C57.470676,146.273605 72.875687,122.740974 92.537422,101.704742 
	C110.819611,82.144493 131.916626,66.558571 155.493454,54.420349 
	C178.199951,42.730209 202.311066,34.565071 227.878632,32.069660 
	C242.561295,30.636623 257.462402,29.402338 272.128632,30.302940 
	C296.058228,31.772375 319.226440,37.539188 341.559540,46.680008 
	C360.004272,54.229324 376.948517,64.196335 392.916687,75.968269 
	C411.100342,89.373466 426.466370,105.578079 439.962280,123.615105 
	C440.533691,124.378761 440.743347,125.413078 441.075500,126.689102 
z"/>
<path fill="#000000" opacity="1.000000" stroke="none" 
	d="
M161.340179,291.383575 
	C148.703522,334.219177 155.343231,374.155701 177.063324,412.058838 
	C168.291168,407.906952 153.910614,373.624573 151.887100,354.919922 
	C148.679703,325.271820 153.676468,297.385040 167.527649,271.080933 
	C170.619415,265.209503 174.418503,259.710571 178.444061,254.507416 
	C172.793411,266.677277 167.142776,278.847137 161.340179,291.383575 
z"/>
<path fill="#000000" opacity="1.000000" stroke="none" 
	d="
M197.128937,234.900360 
	C193.476288,239.408386 189.630096,243.710358 185.783905,248.012314 
	C185.196304,247.434830 184.608719,246.857346 184.021133,246.279846 
	C188.325882,242.417999 192.630630,238.556152 197.128937,234.900360 
z"/>
<path fill="#000000" opacity="1.000000" stroke="none" 
	d="
M226.100861,453.037231 
	C224.417831,452.083466 223.065155,451.263214 221.712479,450.442963 
	C221.926544,450.038116 222.140610,449.633240 222.354675,449.228394 
	C228.694702,452.381775 235.034744,455.535126 241.374771,458.688477 
	C241.204117,459.068512 241.033478,459.448517 240.862823,459.828552 
	C236.052292,457.609283 231.241760,455.390015 226.100861,453.037231 
z"/>
<path fill="#000000" opacity="1.000000" stroke="none" 
	d="
M212.107086,445.049988 
	C210.775513,444.012207 209.748199,443.116974 208.720886,442.221710 
	C208.951401,441.897034 209.181915,441.572357 209.412430,441.247681 
	C212.702362,443.304230 215.992294,445.360748 219.282227,447.417297 
	C219.069000,447.836029 218.855789,448.254730 218.642578,448.673462 
	C216.565506,447.513153 214.488434,446.352814 212.107086,445.049988 
z"/>
<path fill="#000000" opacity="1.000000" stroke="none" 
	d="
M164.787384,147.997391 
	C163.447632,147.939896 162.493073,147.883484 161.538498,147.827072 
	C161.545303,147.645126 161.552094,147.463165 161.558899,147.281219 
	C168.176285,147.281219 174.793686,147.281219 181.411087,147.281219 
	C181.414246,147.520309 181.417389,147.759384 181.420547,147.998474 
	C176.004562,147.998474 170.588562,147.998474 164.787384,147.997391 
z"/>
<path fill="#000000" opacity="1.000000" stroke="none" 
	d="
M202.574921,438.725769 
	C202.456650,437.931885 202.589310,437.297180 202.721985,436.662506 
	C204.031052,437.588074 205.340103,438.513641 206.649170,439.439209 
	C206.432877,439.775635 206.216568,440.112091 206.000275,440.448517 
	C204.942123,439.927338 203.883972,439.406128 202.574921,438.725769 
z"/>
<path fill="#000000" opacity="1.000000" stroke="none" 
	d="
M456.976501,151.693634 
	C455.648773,149.594894 454.263580,147.140488 452.926819,144.312408 
	C454.289825,146.405167 455.604401,148.871567 456.976501,151.693634 
z"/>
<path fill="#000000" opacity="1.000000" stroke="none" 
	d="
M271.949921,174.847626 
	C273.418671,175.730591 274.863647,177.012878 276.403931,178.650085 
	C274.974884,177.752319 273.450500,176.499634 271.949921,174.847626 
z"/>
<path fill="#000000" opacity="1.000000" stroke="none" 
	d="
M182.679779,251.681213 
	C181.855988,251.842072 181.225128,251.809509 180.594254,251.776947 
	C181.317810,251.050766 182.041367,250.324585 182.764923,249.598389 
	C182.800842,250.228195 182.836777,250.858002 182.679779,251.681213 
z"/>
<path fill="#000000" opacity="1.000000" stroke="none" 
	d="
M262.113037,168.276459 
	C263.533905,168.787491 265.125244,169.603180 266.886963,170.723511 
	C265.466095,170.212479 263.874786,169.396790 262.113037,168.276459 
z"/>
<path fill="#000000" opacity="1.000000" stroke="none" 
	d="
M452.912048,143.722015 
	C451.778564,142.555832 450.503754,141.074585 449.087799,139.278137 
	C450.221344,140.444260 451.496033,141.925598 452.912048,143.722015 
z"/>
<path fill="#000000" opacity="1.000000" stroke="none" 
	d="
M385.176147,443.462769 
	C385.071442,442.821808 385.224243,442.214722 385.377045,441.607605 
	C385.733978,441.773438 386.090942,441.939270 386.447906,442.105072 
	C386.109833,442.568909 385.771759,443.032776 385.176147,443.462769 
z"/>
<path fill="#000000" opacity="1.000000" stroke="none" 
	d="
M191.377701,427.345032 
	C190.970703,427.721375 190.440506,427.878052 189.910309,428.034729 
	C189.838196,427.625824 189.766083,427.216888 189.693954,426.807983 
	C190.214142,426.913788 190.734329,427.019592 191.377701,427.345032 
z"/>
<path fill="#000000" opacity="1.000000" stroke="none" 
	d="
M443.070740,129.702148 
	C442.377930,129.237747 441.726776,128.418045 441.014984,127.277512 
	C441.673706,127.753410 442.393066,128.550140 443.070740,129.702148 
z"/>
<path fill="#000000" opacity="1.000000" stroke="none" 
	d="
M445.912781,132.732361 
	C445.112366,132.213943 444.170532,131.392380 443.087280,130.267654 
	C443.887665,130.786087 444.829529,131.607666 445.912781,132.732361 
z"/>
<path fill="#000000" opacity="1.000000" stroke="none" 
	d="
M280.647522,184.279343 
	C281.333893,184.883286 282.218384,185.800064 283.061188,187.138321 
	C282.294891,186.570587 281.570282,185.581390 280.647522,184.279343 
z"/>
<path fill="#000000" opacity="1.000000" stroke="none" 
	d="
M267.050446,171.334274 
	C267.978668,171.486649 269.003754,172.017471 270.294342,172.782684 
	C269.422333,172.582306 268.284821,172.147522 267.050446,171.334274 
z"/>
<path fill="#000000" opacity="1.000000" stroke="none" 
	d="
M179.013290,414.505920 
	C179.145355,414.839508 179.070084,415.169067 178.994812,415.498657 
	C178.931870,415.166412 178.868912,414.834167 179.013290,414.505920 
z"/>
<path fill="#000000" opacity="1.000000" stroke="none" 
	d="
M185.013306,421.505920 
	C185.145386,421.839508 185.070114,422.169098 184.994843,422.498657 
	C184.931885,422.166412 184.868927,421.834167 185.013306,421.505920 
z"/>
<path fill="#000000" opacity="1.000000" stroke="none" 
	d="
M198.494720,434.014465 
	C198.161407,434.145630 197.832169,434.069611 197.502945,433.993622 
	C197.834900,433.931519 198.166840,433.869415 198.494720,434.014465 
z"/>
<path fill="#000000" opacity="1.000000" stroke="none" 
	d="
M285.659576,190.255524 
	C286.238159,190.425949 287.029755,190.878693 287.935699,191.685593 
	C287.324219,191.539124 286.598419,191.038483 285.659576,190.255524 
z"/>
<path fill="#000000" opacity="1.000000" stroke="none" 
	d="
M382.331543,445.363464 
	C382.004669,445.215942 381.826538,444.928650 381.648438,444.641388 
	C381.925751,444.835480 382.203033,445.029572 382.331543,445.363464 
z"/>
<path fill="#000000" opacity="1.000000" stroke="none" 
	d="
M377.291046,447.441345 
	C377.955933,447.246094 378.620850,447.050812 379.285767,446.855530 
	C379.035492,447.213226 378.785248,447.570892 378.109650,447.843719 
	C377.553223,447.653046 377.422119,447.547211 377.291046,447.441345 
z"/>
<path fill="#000000" opacity="1.000000" stroke="none" 
	d="
M449.071411,138.704514 
	C448.417694,138.220093 447.809692,137.379822 447.074646,136.250153 
	C447.670776,136.756729 448.393951,137.552704 449.071411,138.704514 
z"/>
<path fill="#000000" opacity="1.000000" stroke="none" 
	d="
M447.082520,135.718109 
	C446.633453,135.250473 446.245087,134.438477 445.917450,133.281998 
	C446.366547,133.749588 446.754883,134.561646 447.082520,135.718109 
z"/>
<path fill="#000000" opacity="1.000000" stroke="none" 
	d="
M458.078644,154.719406 
	C457.689331,154.251526 457.357086,153.440216 456.998901,152.286987 
	C457.360596,152.755371 457.748138,153.565659 458.078644,154.719406 
z"/>
<path fill="#000000" opacity="1.000000" stroke="none" 
	d="
M377.876495,447.922943 
	C377.744995,448.210541 377.421265,448.334076 377.097565,448.457611 
	C377.097290,448.206177 377.096985,447.954742 377.193848,447.572327 
	C377.422119,447.547211 377.553223,447.653046 377.876495,447.922943 
z"/>
<path fill="#000000" opacity="1.000000" stroke="none" 
	d="
M165.571793,139.001068 
	C171.088196,139.000626 176.186325,139.000626 181.284470,139.000626 
	C181.287231,139.218903 181.290009,139.437180 181.292770,139.655457 
	C174.751633,139.655457 168.210510,139.655457 161.669388,139.655457 
	C161.654434,139.533997 161.639496,139.412521 161.624557,139.291061 
	C162.800888,139.194550 163.977203,139.098038 165.571793,139.001068 
z"/>
</svg>