<svg version="1.1" id="Layer_1" xmlns="http://www.w3.org/2000/svg" xmlns:xlink="http://www.w3.org/1999/xlink" x="0px" y="0px"
	 width="100%" viewBox="0 0 706 765" enable-background="new 0 0 706 765" xml:space="preserve">
<path fill="#CCD6D9" opacity="1.000000" stroke="none" 
	d="
M455.000000,766.000000 
	C428.645782,766.000000 402.291534,766.000000 375.803284,765.645630 
	C372.327759,764.855225 368.963226,764.548889 365.648712,763.960632 
	C350.970490,761.355591 336.281616,758.799866 321.643311,755.983398 
	C297.757202,751.387634 275.046967,742.995911 253.293716,732.455017 
	C234.668533,723.429871 217.078262,712.519287 200.715088,699.527405 
	C183.296234,685.697266 167.559631,670.262878 153.779327,653.007812 
	C137.698303,632.871887 124.365967,610.882263 113.993805,587.175354 
	C104.667084,565.857849 95.512794,544.498352 93.000389,521.046997 
	C91.536263,507.380463 89.842102,493.709656 89.177177,479.995880 
	C88.681915,469.781128 89.414177,459.477814 90.070724,449.244171 
	C90.751396,438.634644 92.001930,428.061768 92.998711,417.472412 
	C94.538254,401.117004 98.875450,385.372162 103.710068,369.772827 
	C109.606308,350.748047 117.947258,332.798737 127.805466,315.477600 
	C139.153564,295.538635 153.029938,277.552460 168.697830,260.917603 
	C174.360916,254.905060 180.449799,249.242828 186.736267,243.880157 
	C195.922684,236.043747 205.075607,228.067383 214.955063,221.171021 
	C225.925186,213.513336 237.550583,206.749207 249.171768,200.086288 
	C256.155792,196.082062 263.615631,192.874588 271.007416,189.642502 
	C272.489014,188.994675 274.629944,189.854736 276.466858,190.019531 
	C276.250427,191.515930 276.193756,193.060242 275.764374,194.492828 
	C275.450409,195.540482 274.702759,196.481140 274.051727,197.401077 
	C269.371674,204.014313 264.107300,210.289505 260.099854,217.285721 
	C253.932312,228.053101 248.409760,239.208694 242.997375,250.385422 
	C234.798248,267.316895 229.908951,285.365021 226.039841,303.690521 
	C224.717606,309.953094 224.972488,310.009888 231.417023,310.009949 
	C317.724274,310.010620 404.031555,310.010376 490.338806,310.010376 
	C492.120667,310.010376 493.902496,310.010376 496.501495,310.010376 
	C495.630920,302.006287 494.812866,294.562317 494.013184,287.116394 
	C492.194336,270.181122 489.279449,253.513092 483.042908,237.530151 
	C476.185394,219.955719 467.441315,203.460968 453.645477,190.424957 
	C446.130096,183.323441 437.583374,177.127228 428.853760,171.534180 
	C408.341888,158.392242 385.257599,152.518692 361.274323,151.228989 
	C344.926025,150.349869 328.455933,151.734955 311.872498,151.905243 
	C311.135864,152.077667 310.567047,152.452515 309.558350,152.901215 
	C307.014252,153.186142 304.899170,153.321167 302.807678,153.621140 
	C292.548462,155.092621 282.295532,156.607956 271.872589,157.905365 
	C271.135956,158.077652 270.567078,158.452377 269.633057,158.901093 
	C268.525269,159.019028 267.782623,159.062973 266.872070,158.904572 
	C266.135498,159.077637 265.566833,159.453018 264.676208,159.903290 
	C263.916290,160.021576 263.478424,160.064941 262.872772,159.905807 
	C262.136078,160.077972 261.567139,160.452621 260.614624,160.905853 
	C258.500732,161.358780 256.770477,161.733124 254.872284,161.905045 
	C254.135666,162.077850 253.566956,162.453079 252.614777,162.907074 
	C250.501312,163.360672 248.771301,163.735489 246.873566,163.907562 
	C246.136642,164.079376 245.567444,164.453918 244.676208,164.903366 
	C243.916260,165.021698 243.478348,165.065125 242.808807,164.879425 
	C240.050842,165.709305 237.524521,166.768341 234.628540,167.904449 
	C232.852798,168.357376 231.446732,168.733200 229.804413,168.877930 
	C229.253799,168.568970 228.895416,168.350586 228.631363,168.433304 
	C206.105621,175.488144 184.526001,184.802872 163.655151,195.784424 
	C162.920547,196.170975 162.580582,197.307556 162.036774,198.057129 
	C162.016876,198.019684 162.091888,198.059250 161.711273,198.055832 
	C158.572540,199.732925 155.814407,201.413422 153.036407,203.056610 
	C153.016541,203.019302 153.091309,203.058792 152.719086,203.054932 
	C150.916779,204.065567 149.486725,205.080063 148.036758,206.057129 
	C148.016861,206.019699 148.091858,206.059250 147.719620,206.055298 
	C145.917007,207.065521 144.486633,208.079727 143.036407,209.056610 
	C143.016571,209.019287 143.091309,209.058746 142.735870,209.057648 
	C141.605667,209.735657 140.830887,210.414749 140.036301,211.056580 
	C140.016479,211.019302 140.091171,211.058670 139.718948,211.054840 
	C137.916672,212.065491 136.486633,213.079987 135.036713,214.057053 
	C135.016861,214.019638 135.091812,214.059143 134.736328,214.057953 
	C133.606033,214.735931 132.831223,215.415100 132.036575,216.056915 
	C132.016724,216.019547 132.091599,216.058975 131.736115,216.057816 
	C130.605927,216.735886 129.831223,217.415131 129.036682,218.056976 
	C129.016830,218.019592 129.091721,218.059036 128.736237,218.057861 
	C127.605988,218.735886 126.831238,219.415070 126.036652,220.056854 
	C126.016800,220.019470 126.091667,220.059006 125.736206,220.057831 
	C124.605873,220.735718 123.831001,221.414764 123.036331,222.056519 
	C123.016533,222.019257 123.091187,222.058624 122.722076,222.054779 
	C121.254128,223.065109 120.155281,224.079300 119.036438,225.056152 
	C119.016441,225.018829 119.091194,225.058624 118.735733,225.057556 
	C117.605690,225.735748 116.831093,226.415009 116.036652,227.056885 
	C116.016800,227.019501 116.091667,227.059021 115.722504,227.055084 
	C114.254501,228.065430 113.155655,229.079712 112.036774,230.056564 
	C112.016747,230.019135 112.091698,230.059036 111.721497,230.055267 
	C110.247971,231.071335 109.144646,232.091171 107.980301,233.344711 
	C107.733376,233.879272 107.463638,234.033615 106.751495,234.044830 
	C105.609322,234.736526 104.825714,235.424805 103.981186,236.346497 
	C103.734589,236.880417 103.465164,237.034531 102.753403,237.045441 
	C101.610298,237.736130 100.825798,238.423630 99.951645,239.382141 
	C99.277740,240.115814 98.693497,240.578445 97.737892,241.041641 
	C96.258041,242.064896 95.149536,243.087585 93.951492,244.381378 
	C93.277702,245.115356 92.693466,245.578232 91.737854,246.041656 
	C90.258072,247.065109 89.149673,248.087997 87.938065,249.397659 
	C86.926262,250.469971 86.017677,251.255524 84.737732,252.041626 
	C83.257996,253.065094 82.149628,254.087997 80.918213,255.419495 
	C77.566521,258.832428 74.337875,261.936737 70.737839,265.041626 
	C69.258064,266.065125 68.149681,267.088074 66.918457,268.419312 
	C63.900719,271.498871 61.005817,274.270081 57.749420,277.087128 
	C56.605774,278.458008 55.823635,279.783051 54.918579,281.417053 
	C51.234085,285.164398 47.672501,288.602875 43.749409,292.087158 
	C42.605774,293.458069 41.823654,294.783142 40.938538,296.395142 
	C39.927349,297.468475 39.019150,298.254913 37.749371,299.087189 
	C36.605907,300.458618 35.824024,301.784149 34.952797,303.380798 
	C34.279861,304.115265 33.696270,304.578644 32.750999,305.087646 
	C31.606859,306.458618 30.824402,307.783966 29.981018,309.343140 
	C29.734465,309.878326 29.464743,310.033081 28.749363,310.087158 
	C27.605831,311.458374 26.823854,312.783752 25.980968,314.343018 
	C25.734434,314.878265 25.464701,315.033051 24.750278,315.086639 
	C23.612997,316.451630 22.836300,317.771240 22.039276,319.053284 
	C22.018951,319.015717 22.093887,319.056732 21.734314,319.098999 
	C20.602900,320.457611 19.831057,321.773956 19.038956,323.052826 
	C19.018698,323.015350 19.093384,323.056335 18.733814,323.098755 
	C17.602703,324.457733 16.831158,325.774323 16.039488,327.053406 
	C16.019361,327.015869 16.094252,327.056488 15.751553,327.121216 
	C14.959000,328.154144 14.509147,329.122284 14.039221,330.052979 
	C14.019150,330.015533 14.093795,330.056183 13.751139,330.120972 
	C12.958699,331.153900 12.508915,332.122040 12.039043,333.052795 
	C12.018957,333.015411 12.093545,333.056000 11.750879,333.120850 
	C10.958648,334.154083 10.509082,335.122406 10.039385,336.053223 
	C10.019255,336.015717 10.094079,336.056366 9.751352,336.121155 
	C8.959053,337.154388 8.509480,338.122803 8.039772,339.053650 
	C8.019638,339.016052 8.094659,339.056641 7.760553,339.133026 
	C7.236817,339.949310 7.047187,340.689209 6.810402,341.594666 
	C6.763247,341.760223 6.432630,341.856232 6.014542,341.654785 
	C4.064301,341.302246 2.532150,341.151123 0.999999,341.000000 
	C1.000000,337.638702 1.000000,334.277435 1.337038,330.789307 
	C2.118241,329.833191 2.829173,329.045044 2.964405,328.168091 
	C4.053858,321.103210 4.626429,313.933868 6.124172,306.961273 
	C10.998037,284.271271 16.698648,261.785675 25.053272,240.079880 
	C33.871254,217.170227 44.190613,194.977814 56.988483,173.974747 
	C69.440987,153.538467 83.254921,134.019882 99.409073,116.429466 
	C111.018028,103.788345 123.996101,92.360939 136.772781,80.846321 
	C154.685959,64.702560 174.923492,51.761753 196.153687,40.520298 
	C219.136185,28.350988 243.259689,18.983356 268.586090,12.648174 
	C288.844849,7.580616 309.238770,3.890868 330.114868,2.929479 
	C331.104095,2.883922 332.039520,1.669876 333.000000,1.000000 
	C347.687561,1.000000 362.375122,1.000000 377.196472,1.357240 
	C378.171814,2.144554 378.982269,2.867436 379.859680,2.960768 
	C392.994690,4.357976 406.261078,4.959451 419.248169,7.192600 
	C434.292053,9.779424 449.092255,13.783484 464.088837,17.481617 
	C465.799103,18.156750 467.418762,18.522562 469.443970,18.940292 
	C481.232391,23.051502 492.615326,27.110794 504.090759,31.492765 
	C506.468719,32.505344 508.754150,33.195248 511.343628,33.939808 
	C512.112366,34.292206 512.577087,34.589947 513.076172,35.171017 
	C513.753479,35.598446 514.396484,35.742542 515.389893,35.942101 
	C517.159668,36.721767 518.578918,37.445972 520.084839,38.485561 
	C522.127563,39.495747 524.083618,40.190552 526.377747,40.940582 
	C527.824402,41.626434 528.933105,42.257057 530.110291,43.233025 
	C531.156311,44.037968 532.133789,44.497566 533.472656,44.982216 
	C536.236633,46.300800 538.639221,47.594337 541.110229,49.233223 
	C542.156189,50.038136 543.133606,50.497696 544.409851,50.979584 
	C545.152954,51.297283 545.597351,51.592663 546.106445,52.239140 
	C547.811218,53.373455 549.451294,54.156670 551.053711,54.960052 
	C551.015991,54.980225 551.056824,54.905132 551.121460,55.247917 
	C552.154480,56.040459 553.122803,56.490215 554.053528,56.960152 
	C554.015869,56.980331 554.056763,56.905315 554.121399,57.248043 
	C555.154114,58.040791 556.122131,58.490810 557.052734,58.960930 
	C557.015198,58.981033 557.056030,58.906391 557.118958,59.257195 
	C558.824158,60.391396 560.466492,61.174797 562.342712,62.019222 
	C562.877991,62.265942 563.032776,62.535732 563.108521,63.233536 
	C564.147705,64.031670 565.119385,64.485878 566.053467,64.960251 
	C566.015869,64.980415 566.056580,64.905418 566.121338,65.248184 
	C567.154358,66.040672 568.122742,66.490387 569.053467,66.960251 
	C569.015808,66.980400 569.056641,66.905434 569.122498,67.249352 
	C570.161987,68.048180 571.135559,68.503098 572.343018,69.018929 
	C572.878235,69.265373 573.033020,69.535034 573.109802,70.233978 
	C574.155334,71.038765 575.132263,71.498390 576.343140,72.018921 
	C576.878296,72.265396 577.033081,72.535057 577.087280,73.250366 
	C578.458313,74.394020 579.783447,75.176132 581.342590,76.019287 
	C581.877930,76.266090 582.032776,76.535957 582.109558,77.234940 
	C583.154785,78.039482 584.131348,78.499023 585.394897,79.061478 
	C586.468262,80.072876 587.254578,80.981369 588.086914,82.251312 
	C589.457947,83.394661 590.783020,84.176559 592.403748,85.069199 
	C593.813232,86.416603 594.927063,87.653259 596.109619,89.234909 
	C597.154785,90.039444 598.131409,90.498985 599.416992,91.081375 
	C604.497620,96.099800 609.269348,100.995377 614.044495,106.249420 
	C614.736206,107.391289 615.424377,108.174690 616.422241,109.082047 
	C620.168274,113.100861 623.604736,116.995735 627.044556,121.249023 
	C627.735657,122.391190 628.423340,123.174950 629.416626,124.079071 
	C630.828796,125.762383 631.935425,127.325340 633.042236,129.258789 
	C634.059387,130.733994 635.076477,131.838715 636.056091,132.963348 
	C636.018677,132.983261 636.058594,132.908508 636.057983,133.265472 
	C636.742004,134.401138 637.426636,135.179855 638.344849,136.019363 
	C638.879211,136.265778 639.033752,136.535202 639.044922,137.245560 
	C639.729980,138.382889 640.412231,139.163116 641.057007,139.963120 
	C641.019470,139.982895 641.059143,139.907959 641.058350,140.264923 
	C641.742004,141.400879 642.426331,142.179855 643.425659,143.088089 
	C644.840881,145.108124 645.941223,146.998901 647.044556,149.246658 
	C647.729797,150.383575 648.412048,151.163513 649.056885,151.963196 
	C649.019470,151.982941 649.059021,151.908081 649.058289,152.265091 
	C649.742126,153.400940 650.426697,154.179794 651.420776,155.097412 
	C652.500732,156.787354 653.271118,158.338501 654.042358,160.270325 
	C655.398926,162.753647 656.754700,164.856277 658.390808,167.064270 
	C658.794861,167.742371 658.918579,168.315125 659.043091,169.271088 
	C661.066101,173.089188 663.088196,176.524078 665.428284,180.108063 
	C666.534790,182.157486 667.323303,184.057846 667.883545,186.178879 
	C669.139893,188.919540 670.624451,191.439529 672.417236,194.097290 
	C672.830811,195.119995 672.936157,196.004913 673.033447,197.289505 
	C674.719788,201.112671 676.414246,204.536179 678.422119,208.103821 
	C678.859558,209.151917 678.983521,210.055862 678.904541,211.146194 
	C679.170654,211.874924 679.639587,212.417297 680.422058,213.103760 
	C680.859924,214.151718 680.984253,215.055573 680.879333,216.186157 
	C682.043030,219.609207 683.435974,222.805511 684.974792,226.324875 
	C685.427063,227.728134 685.733459,228.808319 686.127075,230.101532 
	C686.368225,230.586655 686.573669,230.811768 686.904907,231.300613 
	C686.999451,232.036850 687.019836,232.462326 687.127197,233.100937 
	C687.368164,233.586334 687.573608,233.811584 687.907349,234.360229 
	C688.359253,236.140106 688.734375,237.549591 688.906799,239.126892 
	C689.079224,239.863724 689.454346,240.432739 690.000122,241.355194 
	C691.126831,245.436081 692.082886,249.163528 693.126343,253.103546 
	C693.367920,253.587616 693.573425,253.812195 693.903564,254.347076 
	C693.997498,255.433212 694.018188,256.162109 694.126404,257.103607 
	C694.368347,257.587708 694.573975,257.812286 694.910095,258.386017 
	C696.672424,266.818726 698.355469,274.855286 700.126282,283.104370 
	C700.368774,283.588257 700.574707,283.812622 700.904846,284.374817 
	C700.998047,285.803711 701.018250,286.847748 701.126282,288.104370 
	C701.368774,288.588257 701.574707,288.812622 701.904541,289.417999 
	C703.001648,298.286133 704.003845,306.729218 705.127502,315.156097 
	C705.175293,315.514221 706.350159,315.722107 707.000000,316.000000 
	C707.000000,359.020905 707.000000,402.041779 706.804443,445.630920 
	C706.364868,446.368408 706.164185,446.579010 705.542847,446.903717 
	C547.180481,446.976471 389.282227,446.976471 231.201752,446.976471 
	C230.023224,463.288574 232.978287,478.564117 237.895645,493.492767 
	C245.944382,517.927917 258.053955,539.795227 278.109344,556.684021 
	C291.863220,568.266235 307.028473,577.329041 323.681519,584.032959 
	C341.263550,591.110840 359.472961,595.584106 378.060150,599.326660 
	C396.171722,602.973450 414.373230,604.675293 432.641602,604.770813 
	C450.728455,604.865479 468.875580,603.535461 486.900879,601.825195 
	C499.290405,600.649719 511.688171,598.452759 523.777466,595.474915 
	C543.150146,590.703186 562.203186,584.859070 580.759521,577.238647 
	C599.920898,569.369812 618.454102,560.493408 636.055176,549.592834 
	C637.820435,548.499573 640.451843,548.079956 642.465210,548.468140 
	C643.273804,548.624084 643.935486,551.806946 643.926575,553.608521 
	C643.670654,605.181763 643.300110,656.754517 643.045410,708.327820 
	C643.032349,710.972229 642.403503,712.502686 639.877441,713.666382 
	C630.808960,717.843872 621.964478,722.518433 612.833252,726.547119 
	C584.874023,738.882263 555.857056,747.866150 525.926147,754.117859 
	C503.426941,758.817200 480.882904,762.876770 457.886780,764.069214 
	C456.893829,764.120728 455.960876,765.330017 455.000000,766.000000 
z"/>
<path fill="#000000" opacity="1.000000" stroke="none" 
	d="
M243.040451,165.108551 
	C243.478348,165.065125 243.916260,165.021698 244.981934,164.978561 
	C246.086914,164.689331 246.564102,164.399796 247.041290,164.110291 
	C248.771301,163.735489 250.501312,163.360672 252.920654,162.982239 
	C254.086731,162.688232 254.563461,162.397842 255.040192,162.107452 
	C256.770477,161.733124 258.500732,161.358780 260.920349,160.981400 
	C262.086639,160.688354 262.563568,160.398331 263.040527,160.108307 
	C263.478424,160.064941 263.916290,160.021576 264.982117,159.978409 
	C266.086731,159.688034 266.563354,159.397461 267.040009,159.106903 
	C267.782623,159.062973 268.525269,159.019028 269.938782,158.976746 
	C271.086609,158.688217 271.563507,158.398026 272.040375,158.107819 
	C282.295532,156.607956 292.548462,155.092621 302.807678,153.621140 
	C304.899170,153.321167 307.014252,153.186142 309.864136,152.976746 
	C311.086609,152.688156 311.563477,152.397903 312.040314,152.107651 
	C328.455933,151.734955 344.926025,150.349869 361.274323,151.228989 
	C385.257599,152.518692 408.341888,158.392242 428.853760,171.534180 
	C437.583374,177.127228 446.130096,183.323441 453.645477,190.424957 
	C467.441315,203.460968 476.185394,219.955719 483.042908,237.530151 
	C489.279449,253.513092 492.194336,270.181122 494.013184,287.116394 
	C494.812866,294.562317 495.630920,302.006287 496.501495,310.010376 
	C493.902496,310.010376 492.120667,310.010376 490.338806,310.010376 
	C404.031555,310.010376 317.724274,310.010620 231.417023,310.009949 
	C224.972488,310.009888 224.717606,309.953094 226.039841,303.690521 
	C229.908951,285.365021 234.798248,267.316895 242.997375,250.385422 
	C248.409760,239.208694 253.932312,228.053101 260.099854,217.285721 
	C264.107300,210.289505 269.371674,204.014313 274.051727,197.401077 
	C274.702759,196.481140 275.450409,195.540482 275.764374,194.492828 
	C276.193756,193.060242 276.250427,191.515930 276.466858,190.019531 
	C274.629944,189.854736 272.489014,188.994675 271.007416,189.642502 
	C263.615631,192.874588 256.155792,196.082062 249.171768,200.086288 
	C237.550583,206.749207 225.925186,213.513336 214.955063,221.171021 
	C205.075607,228.067383 195.922684,236.043747 186.736267,243.880157 
	C180.449799,249.242828 174.360916,254.905060 168.697830,260.917603 
	C153.029938,277.552460 139.153564,295.538635 127.805466,315.477600 
	C117.947258,332.798737 109.606308,350.748047 103.710068,369.772827 
	C98.875450,385.372162 94.538254,401.117004 92.998711,417.472412 
	C92.001930,428.061768 90.751396,438.634644 90.070724,449.244171 
	C89.414177,459.477814 88.681915,469.781128 89.177177,479.995880 
	C89.842102,493.709656 91.536263,507.380463 93.000389,521.046997 
	C95.512794,544.498352 104.667084,565.857849 113.993805,587.175354 
	C124.365967,610.882263 137.698303,632.871887 153.779327,653.007812 
	C167.559631,670.262878 183.296234,685.697266 200.715088,699.527405 
	C217.078262,712.519287 234.668533,723.429871 253.293716,732.455017 
	C275.046967,742.995911 297.757202,751.387634 321.643311,755.983398 
	C336.281616,758.799866 350.970490,761.355591 365.648712,763.960632 
	C368.963226,764.548889 372.327759,764.855225 375.334656,765.645630 
	C250.401764,766.000000 125.803543,766.000000 1.000000,766.000000 
	C1.000000,625.312500 1.000000,484.624908 1.253356,343.132935 
	C3.148685,342.171082 4.790657,342.013641 6.432630,341.856232 
	C6.432630,341.856232 6.763247,341.760223 7.046572,341.429596 
	C7.584819,340.418182 7.839740,339.737427 8.094660,339.056641 
	C8.094659,339.056641 8.019638,339.016052 8.345875,338.932373 
	C9.146099,337.917908 9.620085,336.987152 10.094074,336.056366 
	C10.094079,336.056366 10.019255,336.015717 10.345552,335.932068 
	C11.145749,334.917633 11.619649,333.986816 12.093547,333.056000 
	C12.093545,333.056000 12.018957,333.015411 12.345238,332.931824 
	C13.145610,331.917542 13.619701,330.986847 14.093794,330.056183 
	C14.093795,330.056183 14.019150,330.015533 14.345440,329.932007 
	C15.145905,328.917786 15.620080,327.987152 16.094254,327.056488 
	C16.094252,327.056488 16.019361,327.015869 16.350061,326.928528 
	C17.484968,325.579559 18.289177,324.317963 19.093384,323.056335 
	C19.093384,323.056335 19.018698,323.015350 19.349588,322.928101 
	C20.484951,321.579498 21.289421,320.318115 22.093889,319.056732 
	C22.093887,319.056732 22.018951,319.015717 22.350592,318.927826 
	C23.491776,317.573700 24.301317,316.307495 25.110863,315.041260 
	C25.464701,315.033051 25.734434,314.878265 26.292984,314.214966 
	C27.480909,312.582428 28.295916,311.311859 29.110920,310.041290 
	C29.464743,310.033081 29.734465,309.878326 30.293013,309.215088 
	C31.481516,307.582764 32.297096,306.312408 33.112679,305.042023 
	C33.696270,304.578644 34.279861,304.115265 35.264759,303.252563 
	C36.481030,301.582611 37.295994,300.311981 38.110954,299.041321 
	C39.019150,298.254913 39.927349,297.468475 41.250645,296.267334 
	C42.480801,294.582184 43.295856,293.311768 44.110916,292.041321 
	C47.672501,288.602875 51.234085,285.164398 55.230705,281.289276 
	C56.480801,279.582184 57.295860,278.311737 58.110924,277.041321 
	C61.005817,274.270081 63.900719,271.498871 67.253410,268.367004 
	C68.843880,267.017914 69.976555,266.029510 71.109222,265.041077 
	C74.337875,261.936737 77.566521,258.832428 81.253166,255.367157 
	C82.843803,254.017868 83.976448,253.029465 85.109093,252.041061 
	C86.017677,251.255524 86.926262,250.469971 88.273003,249.345337 
	C89.843849,248.017868 90.976532,247.029480 92.109222,246.041107 
	C92.693466,245.578232 93.277702,245.115356 94.286423,244.329071 
	C95.843674,243.017471 96.976456,242.029282 98.109245,241.041092 
	C98.693497,240.578445 99.277740,240.115814 100.280357,239.329987 
	C101.503151,238.351944 102.307579,237.697098 103.112000,237.042236 
	C103.465164,237.034531 103.734589,236.880417 104.309708,236.293701 
	C105.502777,235.352127 106.306412,234.696777 107.110046,234.041428 
	C107.463638,234.033615 107.733376,233.879272 108.313950,233.292419 
	C109.836327,232.023987 110.964012,231.041519 112.091705,230.059052 
	C112.091698,230.059036 112.016747,230.019135 112.370369,230.011871 
	C113.846550,229.022751 114.969109,228.040894 116.091667,227.059021 
	C116.091667,227.059021 116.016800,227.019501 116.363052,227.012207 
	C117.503273,226.356171 118.297234,225.707397 119.091194,225.058624 
	C119.091194,225.058624 119.016441,225.018829 119.370041,225.011536 
	C120.846153,224.022354 121.968674,223.040497 123.091187,222.058624 
	C123.091187,222.058624 123.016533,222.019257 123.362732,222.011887 
	C124.503181,221.356003 125.297424,220.707504 126.091667,220.059006 
	C126.091667,220.059006 126.016800,220.019470 126.363068,220.012268 
	C127.503464,219.356369 128.297592,218.707703 129.091721,218.059036 
	C129.091721,218.059036 129.016830,218.019592 129.363068,218.012283 
	C130.503403,217.356308 131.297501,216.707642 132.091583,216.058960 
	C132.091599,216.058975 132.016724,216.019547 132.362976,216.012238 
	C133.503418,215.356339 134.297607,214.707733 135.091812,214.059143 
	C135.091812,214.059143 135.016861,214.019638 135.384567,214.011993 
	C137.198578,213.022461 138.644867,212.040573 140.091171,211.058670 
	C140.091171,211.058670 140.016479,211.019302 140.362717,211.011963 
	C141.503067,210.356003 142.297195,209.707367 143.091309,209.058746 
	C143.091309,209.058746 143.016571,209.019287 143.384262,209.011566 
	C145.198578,208.022324 146.645218,207.040787 148.091858,206.059250 
	C148.091858,206.059250 148.016861,206.019699 148.384583,206.012039 
	C150.198639,205.022522 151.644974,204.040649 153.091309,203.058777 
	C153.091309,203.058792 153.016541,203.019302 153.402313,203.010559 
	C156.556015,201.354309 159.323944,199.706772 162.091888,198.059235 
	C162.091888,198.059250 162.016876,198.019684 162.406006,198.010635 
	C171.073883,193.998245 179.204407,189.643921 187.664795,186.070709 
	C201.678299,180.152161 215.904221,174.736542 230.040665,169.109039 
	C231.446732,168.733200 232.852798,168.357376 235.004227,167.978088 
	C238.179871,167.019272 240.610168,166.063904 243.040451,165.108551 
z"/>
<path fill="#000000" opacity="1.000000" stroke="none" 
	d="
M455.468658,766.000000 
	C455.960876,765.330017 456.893829,764.120728 457.886780,764.069214 
	C480.882904,762.876770 503.426941,758.817200 525.926147,754.117859 
	C555.857056,747.866150 584.874023,738.882263 612.833252,726.547119 
	C621.964478,722.518433 630.808960,717.843872 639.877441,713.666382 
	C642.403503,712.502686 643.032349,710.972229 643.045410,708.327820 
	C643.300110,656.754517 643.670654,605.181763 643.926575,553.608521 
	C643.935486,551.806946 643.273804,548.624084 642.465210,548.468140 
	C640.451843,548.079956 637.820435,548.499573 636.055176,549.592834 
	C618.454102,560.493408 599.920898,569.369812 580.759521,577.238647 
	C562.203186,584.859070 543.150146,590.703186 523.777466,595.474915 
	C511.688171,598.452759 499.290405,600.649719 486.900879,601.825195 
	C468.875580,603.535461 450.728455,604.865479 432.641602,604.770813 
	C414.373230,604.675293 396.171722,602.973450 378.060150,599.326660 
	C359.472961,595.584106 341.263550,591.110840 323.681519,584.032959 
	C307.028473,577.329041 291.863220,568.266235 278.109344,556.684021 
	C258.053955,539.795227 245.944382,517.927917 237.895645,493.492767 
	C232.978287,478.564117 230.023224,463.288574 231.201752,446.976471 
	C389.282227,446.976471 547.180481,446.976471 705.785156,446.981018 
	C706.661072,446.990356 706.830566,446.995178 707.000000,447.000000 
	C707.000000,553.251831 707.000000,659.503662 707.000000,766.000000 
	C623.312622,766.000000 539.624939,766.000000 455.468658,766.000000 
z"/>
<path fill="#000000" opacity="1.000000" stroke="none" 
	d="
M332.531342,1.000000 
	C332.039520,1.669876 331.104095,2.883922 330.114868,2.929479 
	C309.238770,3.890868 288.844849,7.580616 268.586090,12.648174 
	C243.259689,18.983356 219.136185,28.350988 196.153687,40.520298 
	C174.923492,51.761753 154.685959,64.702560 136.772781,80.846321 
	C123.996101,92.360939 111.018028,103.788345 99.409073,116.429466 
	C83.254921,134.019882 69.440987,153.538467 56.988483,173.974747 
	C44.190613,194.977814 33.871254,217.170227 25.053272,240.079880 
	C16.698648,261.785675 10.998037,284.271271 6.124172,306.961273 
	C4.626429,313.933868 4.053858,321.103210 2.964405,328.168091 
	C2.829173,329.045044 2.118241,329.833191 1.337038,330.331238 
	C1.000000,220.405930 1.000000,110.811874 1.000000,1.000000 
	C111.354134,1.000000 221.708405,1.000000 332.531342,1.000000 
z"/>
<path fill="#000000" opacity="1.000000" stroke="none" 
	d="
M519.998230,38.170174 
	C518.578918,37.445972 517.159668,36.721767 515.278381,35.654324 
	C514.224854,35.169949 513.633362,35.028809 513.041809,34.887676 
	C512.577087,34.589947 512.112366,34.292206 511.181702,33.611687 
	C508.476593,32.542633 506.237396,31.856363 503.998230,31.170090 
	C492.615326,27.110794 481.232391,23.051502 469.286407,18.614803 
	C467.148285,17.882360 465.573273,17.527325 463.998230,17.172295 
	C449.092255,13.783484 434.292053,9.779424 419.248169,7.192600 
	C406.261078,4.959451 392.994690,4.357976 379.859680,2.960768 
	C378.982269,2.867436 378.171814,2.144554 377.665100,1.357240 
	C487.592133,1.000000 597.184265,1.000000 707.000000,1.000000 
	C707.000000,105.687454 707.000000,210.375076 707.000000,315.531342 
	C706.350159,315.722107 705.175293,315.514221 705.127502,315.156097 
	C704.003845,306.729218 703.001648,298.286133 701.947754,289.151489 
	C701.625000,288.268585 701.331726,288.080200 701.038513,287.891815 
	C701.018250,286.847748 700.998047,285.803711 700.947998,284.108276 
	C700.624939,283.268585 700.331726,283.080231 700.038452,282.891846 
	C698.355469,274.855286 696.672424,266.818726 694.953735,258.119629 
	C694.625000,257.268372 694.331970,257.079681 694.038879,256.890991 
	C694.018188,256.162109 693.997498,255.433212 693.947510,254.080719 
	C693.625061,253.268402 693.331970,253.079697 693.038940,252.890961 
	C692.082886,249.163528 691.126831,245.436081 690.074951,241.049377 
	C689.689270,239.913116 689.399353,239.436111 689.109436,238.959106 
	C688.734375,237.549591 688.359253,236.140106 687.951050,234.093887 
	C687.625366,233.267365 687.332825,233.077576 687.040222,232.887787 
	C687.019836,232.462326 686.999451,232.036850 686.948486,231.034241 
	C686.625244,230.267578 686.332520,230.078049 686.039856,229.888519 
	C685.733459,228.808319 685.427063,227.728134 685.047363,225.944489 
	C683.685669,222.147156 682.397156,219.053284 681.108643,215.959412 
	C680.984253,215.055573 680.859924,214.151718 680.370850,212.798874 
	C679.706604,211.886520 679.407043,211.423172 679.107483,210.959839 
	C678.983521,210.055862 678.859558,209.151917 678.367859,207.725983 
	C676.347290,203.765961 674.694397,200.327896 673.041504,196.889832 
	C672.936157,196.004913 672.830811,195.119995 672.364868,193.733643 
	C670.706787,190.807526 669.409302,188.382858 668.111816,185.958191 
	C667.323303,184.057846 666.534790,182.157486 665.374634,179.739685 
	C663.016113,175.777451 661.029175,172.332672 659.042297,168.887878 
	C658.918579,168.315125 658.794861,167.742371 658.338135,166.704254 
	C656.683899,164.122467 655.362732,162.006073 654.041565,159.889648 
	C653.271118,158.338501 652.500732,156.787354 651.368530,154.770737 
	C650.357544,153.506210 649.708252,152.707138 649.059021,151.908081 
	C649.059021,151.908081 649.019470,151.982941 649.012268,151.634811 
	C648.350586,150.487671 647.696045,149.688660 647.041565,148.889648 
	C645.941223,146.998901 644.840881,145.108124 643.373657,142.761368 
	C642.357483,141.506241 641.708313,140.707108 641.059143,139.907959 
	C641.059143,139.907959 641.019470,139.982895 641.012451,139.634613 
	C640.351013,138.487030 639.696533,137.687744 639.042053,136.888458 
	C639.033752,136.535202 638.879211,136.265778 638.292358,135.692780 
	C637.357056,134.506424 636.707825,133.707458 636.058594,132.908508 
	C636.058594,132.908508 636.018677,132.983261 636.011475,132.628418 
	C635.016846,131.145142 634.029480,130.016724 633.042053,128.888306 
	C631.935425,127.325340 630.828796,125.762383 629.364441,123.750427 
	C628.351501,122.497833 627.696350,121.694221 627.041199,120.890610 
	C623.604736,116.995735 620.168274,113.100861 616.369507,108.753517 
	C615.351807,107.497681 614.696411,106.694313 614.041016,105.890953 
	C609.269348,100.995377 604.497620,96.099800 599.292358,90.773117 
	C597.919434,89.857994 596.980225,89.373962 596.040955,88.889923 
	C594.927063,87.653259 593.813232,86.416603 592.276001,84.757088 
	C590.582092,83.519432 589.311523,82.704643 588.040955,81.889847 
	C587.254578,80.981369 586.468262,80.072876 585.270264,78.753204 
	C583.919434,77.857979 582.980225,77.373947 582.040955,76.889915 
	C582.032776,76.535957 581.877930,76.266090 581.214722,75.707199 
	C579.582397,74.518982 578.311951,73.703903 577.041443,72.888824 
	C577.033081,72.535057 576.878296,72.265396 576.218140,71.710701 
	C574.919983,70.857307 573.980652,70.373055 573.041260,69.888809 
	C573.033020,69.535034 572.878235,69.265373 572.219055,68.711777 
	C570.926331,67.864281 569.991516,67.384850 569.056641,66.905426 
	C569.056641,66.905434 569.015808,66.980400 568.932312,66.654068 
	C567.918091,65.853630 566.987305,65.379524 566.056580,64.905411 
	C566.056580,64.905418 566.015869,64.980415 565.931274,64.653069 
	C564.911499,63.847019 563.976257,63.368317 563.041016,62.889610 
	C563.032776,62.535732 562.877991,62.265942 562.207397,61.698547 
	C560.244080,60.513367 558.650024,59.709877 557.056030,58.906387 
	C557.056030,58.906391 557.015198,58.981033 556.931763,58.654709 
	C555.917786,57.854027 554.987305,57.379669 554.056763,56.905315 
	C554.056763,56.905315 554.015869,56.980331 553.932373,56.654018 
	C552.918152,55.853516 551.987488,55.379326 551.056824,54.905132 
	C551.056824,54.905132 551.015991,54.980225 550.919922,54.639587 
	C549.229797,53.495319 547.635742,52.691681 546.041687,51.888042 
	C545.597351,51.592663 545.152954,51.297283 544.284485,50.671486 
	C542.920837,49.856674 541.981262,49.372280 541.041748,48.887878 
	C538.639221,47.594337 536.236633,46.300800 533.347290,44.674107 
	C531.920837,43.856522 530.981323,43.372097 530.041748,42.887680 
	C528.933105,42.257057 527.824402,41.626434 526.228516,40.621231 
	C523.826904,39.554493 521.912598,38.862331 519.998230,38.170174 
z"/>
<path fill="#CAD5D8" opacity="1.000000" stroke="none" 
	d="
M6.014541,341.654785 
	C4.790657,342.013641 3.148685,342.171082 1.253356,342.664246 
	C1.000000,342.555542 1.000000,342.111115 0.999999,341.333313 
	C2.532150,341.151123 4.064301,341.302246 6.014541,341.654785 
z"/>
<path fill="#C6D2D6" opacity="1.000000" stroke="none" 
	d="
M707.000000,446.750000 
	C706.830566,446.995178 706.661072,446.990356 706.249207,446.908264 
	C706.164185,446.579010 706.364868,446.368408 706.804443,446.099579 
	C707.000000,446.000000 707.000000,446.500000 707.000000,446.750000 
z"/>
<path fill="#CAD5D8" opacity="1.000000" stroke="none" 
	d="
M229.804413,168.877930 
	C215.904221,174.736542 201.678299,180.152161 187.664795,186.070709 
	C179.204407,189.643921 171.073883,193.998245 162.425919,198.048065 
	C162.580582,197.307556 162.920547,196.170975 163.655151,195.784424 
	C184.526001,184.802872 206.105621,175.488144 228.631363,168.433304 
	C228.895416,168.350586 229.253799,168.568970 229.804413,168.877930 
z"/>
<path fill="#CAD5D8" opacity="1.000000" stroke="none" 
	d="
M659.043091,169.271088 
	C661.029175,172.332672 663.016113,175.777451 665.056641,179.590607 
	C663.088196,176.524078 661.066101,173.089188 659.043091,169.271088 
z"/>
<path fill="#CAD5D8" opacity="1.000000" stroke="none" 
	d="
M673.033447,197.289490 
	C674.694397,200.327896 676.347290,203.765961 678.054382,207.581848 
	C676.414246,204.536179 674.719788,201.112671 673.033447,197.289490 
z"/>
<path fill="#CAD5D8" opacity="1.000000" stroke="none" 
	d="
M680.879333,216.186142 
	C682.397156,219.053284 683.685669,222.147156 684.901489,225.621429 
	C683.435974,222.805511 682.043030,219.609207 680.879333,216.186142 
z"/>
<path fill="#CAD5D8" opacity="1.000000" stroke="none" 
	d="
M161.711273,198.055817 
	C159.323944,199.706772 156.556015,201.354309 153.422180,203.047882 
	C155.814407,201.413422 158.572540,199.732925 161.711273,198.055817 
z"/>
<path fill="#CAD5D8" opacity="1.000000" stroke="none" 
	d="
M667.883545,186.178864 
	C669.409302,188.382858 670.706787,190.807526 672.056641,193.595856 
	C670.624451,191.439529 669.139893,188.919540 667.883545,186.178864 
z"/>
<path fill="#CAD5D8" opacity="1.000000" stroke="none" 
	d="
M242.808807,164.879425 
	C240.610168,166.063904 238.179871,167.019272 235.373901,167.901001 
	C237.524521,166.768341 240.050842,165.709305 242.808807,164.879425 
z"/>
<path fill="#CAD5D8" opacity="1.000000" stroke="none" 
	d="
M654.042358,160.270340 
	C655.362732,162.006073 656.683899,164.122467 658.057739,166.598892 
	C656.754700,164.856277 655.398926,162.753647 654.042358,160.270340 
z"/>
<path fill="#CAD5D8" opacity="1.000000" stroke="none" 
	d="
M504.090759,31.492767 
	C506.237396,31.856363 508.476593,32.542633 510.877686,33.557030 
	C508.754150,33.195248 506.468719,32.505344 504.090759,31.492767 
z"/>
<path fill="#CAD5D8" opacity="1.000000" stroke="none" 
	d="
M520.084839,38.485558 
	C521.912598,38.862331 523.826904,39.554493 525.890503,40.566006 
	C524.083618,40.190552 522.127563,39.495747 520.084839,38.485558 
z"/>
<path fill="#CAD5D8" opacity="1.000000" stroke="none" 
	d="
M464.088837,17.481613 
	C465.573273,17.527325 467.148285,17.882360 468.880859,18.562885 
	C467.418762,18.522562 465.799103,18.156750 464.088837,17.481613 
z"/>
<path fill="#CAD5D8" opacity="1.000000" stroke="none" 
	d="
M139.718948,211.054840 
	C138.644867,212.040573 137.198578,213.022461 135.404419,214.049408 
	C136.486633,213.079987 137.916672,212.065491 139.718948,211.054840 
z"/>
<path fill="#CAD5D8" opacity="1.000000" stroke="none" 
	d="
M147.719620,206.055298 
	C146.645218,207.040787 145.198578,208.022324 143.404099,209.048889 
	C144.486633,208.079727 145.917007,207.065521 147.719620,206.055298 
z"/>
<path fill="#CAD5D8" opacity="1.000000" stroke="none" 
	d="
M152.719086,203.054932 
	C151.644974,204.040649 150.198639,205.022522 148.404480,206.049469 
	C149.486725,205.080063 150.916779,204.065567 152.719086,203.054932 
z"/>
<path fill="#CAD5D8" opacity="1.000000" stroke="none" 
	d="
M546.106445,52.239143 
	C547.635742,52.691681 549.229797,53.495319 550.957642,54.619419 
	C549.451294,54.156670 547.811218,53.373455 546.106445,52.239143 
z"/>
<path fill="#CAD5D8" opacity="1.000000" stroke="none" 
	d="
M557.118958,59.257191 
	C558.650024,59.709877 560.244080,60.513367 561.973389,61.637527 
	C560.466492,61.174797 558.824158,60.391396 557.118958,59.257191 
z"/>
<path fill="#CAD5D8" opacity="1.000000" stroke="none" 
	d="
M577.087280,73.250366 
	C578.311951,73.703903 579.582397,74.518982 580.980774,75.646164 
	C579.783447,75.176132 578.458313,74.394020 577.087280,73.250366 
z"/>
<path fill="#CAD5D8" opacity="1.000000" stroke="none" 
	d="
M122.722076,222.054779 
	C121.968674,223.040497 120.846153,224.022354 119.390038,225.048859 
	C120.155281,224.079300 121.254128,223.065109 122.722076,222.054779 
z"/>
<path fill="#CAD5D8" opacity="1.000000" stroke="none" 
	d="
M115.722504,227.055084 
	C114.969109,228.040894 113.846550,229.022751 112.390396,230.049301 
	C113.155655,229.079712 114.254501,228.065430 115.722504,227.055084 
z"/>
<path fill="#CAD5D8" opacity="1.000000" stroke="none" 
	d="
M111.721497,230.055267 
	C110.964012,231.041519 109.836327,232.023987 108.374977,233.058746 
	C109.144646,232.091171 110.247971,231.071335 111.721497,230.055267 
z"/>
<path fill="#CAD5D8" opacity="1.000000" stroke="none" 
	d="
M97.737892,241.041641 
	C96.976456,242.029282 95.843674,243.017471 94.375961,244.057968 
	C95.149536,243.087585 96.258041,242.064896 97.737892,241.041641 
z"/>
<path fill="#CAD5D8" opacity="1.000000" stroke="none" 
	d="
M91.737854,246.041656 
	C90.976532,247.029480 89.843849,248.017868 88.376221,249.058563 
	C89.149673,248.087997 90.258072,247.065109 91.737854,246.041656 
z"/>
<path fill="#CAD5D8" opacity="1.000000" stroke="none" 
	d="
M84.737732,252.041626 
	C83.976448,253.029465 82.843803,254.017868 81.376221,255.058578 
	C82.149628,254.087997 83.257996,253.065094 84.737732,252.041626 
z"/>
<path fill="#CAD5D8" opacity="1.000000" stroke="none" 
	d="
M70.737839,265.041626 
	C69.976555,266.029510 68.843880,267.017914 67.376251,268.058655 
	C68.149681,267.088074 69.258064,266.065125 70.737839,265.041626 
z"/>
<path fill="#CAD5D8" opacity="1.000000" stroke="none" 
	d="
M57.749420,277.087128 
	C57.295860,278.311737 56.480801,279.582184 55.353615,280.980347 
	C55.823635,279.783051 56.605774,278.458008 57.749420,277.087128 
z"/>
<path fill="#CAD5D8" opacity="1.000000" stroke="none" 
	d="
M37.749374,299.087189 
	C37.295994,300.311981 36.481030,301.582611 35.354103,302.981506 
	C35.824024,301.784149 36.605907,300.458618 37.749374,299.087189 
z"/>
<path fill="#CAD5D8" opacity="1.000000" stroke="none" 
	d="
M32.750999,305.087646 
	C32.297096,306.312408 31.481516,307.582764 30.353939,308.981201 
	C30.824402,307.783966 31.606859,306.458618 32.750999,305.087646 
z"/>
<path fill="#CAD5D8" opacity="1.000000" stroke="none" 
	d="
M28.749363,310.087158 
	C28.295916,311.311859 27.480909,312.582428 26.353891,313.981079 
	C26.823854,312.783752 27.605831,311.458374 28.749363,310.087158 
z"/>
<path fill="#CAD5D8" opacity="1.000000" stroke="none" 
	d="
M24.750278,315.086639 
	C24.301317,316.307495 23.491776,317.573700 22.370916,318.965393 
	C22.836300,317.771240 23.612997,316.451630 24.750278,315.086639 
z"/>
<path fill="#CAD5D8" opacity="1.000000" stroke="none" 
	d="
M21.734318,319.098999 
	C21.289421,320.318115 20.484951,321.579498 19.369846,322.965576 
	C19.831057,321.773956 20.602900,320.457611 21.734318,319.098999 
z"/>
<path fill="#CAD5D8" opacity="1.000000" stroke="none" 
	d="
M18.733816,323.098755 
	C18.289177,324.317963 17.484968,325.579559 16.370188,326.966064 
	C16.831158,325.774323 17.602703,324.457733 18.733816,323.098755 
z"/>
<path fill="#CAD5D8" opacity="1.000000" stroke="none" 
	d="
M43.749405,292.087158 
	C43.295856,293.311768 42.480801,294.582184 41.353638,295.980408 
	C41.823654,294.783142 42.605774,293.458069 43.749405,292.087158 
z"/>
<path fill="#CAD5D8" opacity="1.000000" stroke="none" 
	d="
M633.042236,129.258789 
	C634.029480,130.016724 635.016846,131.145142 636.048889,132.608505 
	C635.076477,131.838715 634.059387,130.733994 633.042236,129.258789 
z"/>
<path fill="#CAD5D8" opacity="1.000000" stroke="none" 
	d="
M588.086914,82.251305 
	C589.311523,82.704643 590.582092,83.519432 591.980408,84.646347 
	C590.783020,84.176559 589.457947,83.394661 588.086914,82.251305 
z"/>
<path fill="#CAD5D8" opacity="1.000000" stroke="none" 
	d="
M573.109802,70.233978 
	C573.980652,70.373055 574.919983,70.857307 575.984314,71.649796 
	C575.132263,71.498390 574.155334,71.038765 573.109802,70.233978 
z"/>
<path fill="#CAD5D8" opacity="1.000000" stroke="none" 
	d="
M125.736206,220.057831 
	C125.297424,220.707504 124.503181,221.356003 123.382538,222.049164 
	C123.831001,221.414764 124.605873,220.735718 125.736206,220.057831 
z"/>
<path fill="#CAD5D8" opacity="1.000000" stroke="none" 
	d="
M128.736237,218.057861 
	C128.297592,218.707703 127.503464,219.356369 126.382919,220.049652 
	C126.831238,219.415070 127.605988,218.735886 128.736237,218.057861 
z"/>
<path fill="#CAD5D8" opacity="1.000000" stroke="none" 
	d="
M118.735733,225.057556 
	C118.297234,225.707397 117.503273,226.356171 116.382904,227.049591 
	C116.831093,226.415009 117.605690,225.735748 118.735733,225.057556 
z"/>
<path fill="#CAD5D8" opacity="1.000000" stroke="none" 
	d="
M9.751348,336.121155 
	C9.620085,336.987152 9.146099,337.917908 8.366009,338.969971 
	C8.509480,338.122803 8.959053,337.154388 9.751348,336.121155 
z"/>
<path fill="#CAD5D8" opacity="1.000000" stroke="none" 
	d="
M11.750881,333.120850 
	C11.619649,333.986816 11.145749,334.917633 10.365683,335.969604 
	C10.509082,335.122406 10.958648,334.154083 11.750881,333.120850 
z"/>
<path fill="#CAD5D8" opacity="1.000000" stroke="none" 
	d="
M13.751139,330.120972 
	C13.619701,330.986847 13.145610,331.917542 12.365325,332.969208 
	C12.508915,332.122040 12.958699,331.153900 13.751139,330.120972 
z"/>
<path fill="#CAD5D8" opacity="1.000000" stroke="none" 
	d="
M15.751554,327.121216 
	C15.620080,327.987152 15.145905,328.917786 14.365511,329.969452 
	C14.509147,329.122284 14.959000,328.154144 15.751554,327.121216 
z"/>
<path fill="#CAD5D8" opacity="1.000000" stroke="none" 
	d="
M106.751495,234.044830 
	C106.306412,234.696777 105.502777,235.352127 104.370621,236.060287 
	C104.825714,235.424805 105.609322,234.736526 106.751495,234.044830 
z"/>
<path fill="#CAD5D8" opacity="1.000000" stroke="none" 
	d="
M102.753403,237.045441 
	C102.307579,237.697098 101.503151,238.351944 100.370010,239.058960 
	C100.825798,238.423630 101.610298,237.736130 102.753403,237.045441 
z"/>
<path fill="#CAD5D8" opacity="1.000000" stroke="none" 
	d="
M563.108521,63.233540 
	C563.976257,63.368317 564.911499,63.847019 565.968872,64.632904 
	C565.119385,64.485878 564.147705,64.031670 563.108521,63.233540 
z"/>
<path fill="#CAD5D8" opacity="1.000000" stroke="none" 
	d="
M649.058289,152.265091 
	C649.708252,152.707138 650.357544,153.506210 651.059021,154.631958 
	C650.426697,154.179794 649.742126,153.400940 649.058289,152.265091 
z"/>
<path fill="#CAD5D8" opacity="1.000000" stroke="none" 
	d="
M569.122498,67.249344 
	C569.991516,67.384850 570.926331,67.864281 571.985229,68.650864 
	C571.135559,68.503098 570.161987,68.048180 569.122498,67.249344 
z"/>
<path fill="#CAD5D8" opacity="1.000000" stroke="none" 
	d="
M647.044556,149.246643 
	C647.696045,149.688660 648.350586,150.487671 649.049683,151.615051 
	C648.412048,151.163513 647.729797,150.383575 647.044556,149.246643 
z"/>
<path fill="#CAD5D8" opacity="1.000000" stroke="none" 
	d="
M641.058350,140.264938 
	C641.708313,140.707108 642.357483,141.506241 643.058716,142.632095 
	C642.426331,142.179855 641.742004,141.400879 641.058350,140.264938 
z"/>
<path fill="#CAD5D8" opacity="1.000000" stroke="none" 
	d="
M566.121338,65.248184 
	C566.987305,65.379524 567.918091,65.853630 568.969971,66.633926 
	C568.122742,66.490387 567.154358,66.040672 566.121338,65.248184 
z"/>
<path fill="#CAD5D8" opacity="1.000000" stroke="none" 
	d="
M639.044922,137.245560 
	C639.696533,137.687744 640.351013,138.487030 641.049988,139.614838 
	C640.412231,139.163116 639.729980,138.382889 639.044922,137.245560 
z"/>
<path fill="#CAD5D8" opacity="1.000000" stroke="none" 
	d="
M636.057983,133.265472 
	C636.707825,133.707458 637.357056,134.506424 638.058777,135.631958 
	C637.426636,135.179855 636.742004,134.401138 636.057983,133.265472 
z"/>
<path fill="#CAD5D8" opacity="1.000000" stroke="none" 
	d="
M627.044556,121.249023 
	C627.696350,121.694221 628.351501,122.497833 629.058838,123.630074 
	C628.423340,123.174950 627.735657,122.391190 627.044556,121.249023 
z"/>
<path fill="#CAD5D8" opacity="1.000000" stroke="none" 
	d="
M614.044495,106.249420 
	C614.696411,106.694313 615.351807,107.497681 616.059875,108.629562 
	C615.424377,108.174690 614.736206,107.391289 614.044495,106.249420 
z"/>
<path fill="#CAD5D8" opacity="1.000000" stroke="none" 
	d="
M554.121399,57.248043 
	C554.987305,57.379669 555.917786,57.854027 556.969238,58.634605 
	C556.122131,58.490810 555.154114,58.040791 554.121399,57.248043 
z"/>
<path fill="#CAD5D8" opacity="1.000000" stroke="none" 
	d="
M551.121460,55.247917 
	C551.987488,55.379326 552.918152,55.853516 553.969971,56.633842 
	C553.122803,56.490215 552.154480,56.040459 551.121460,55.247917 
z"/>
<path fill="#CAD5D8" opacity="1.000000" stroke="none" 
	d="
M596.109619,89.234924 
	C596.980225,89.373962 597.919434,89.857994 598.983337,90.650269 
	C598.131409,90.498985 597.154785,90.039444 596.109619,89.234924 
z"/>
<path fill="#CAD5D8" opacity="1.000000" stroke="none" 
	d="
M582.109558,77.234924 
	C582.980225,77.373947 583.919434,77.857979 584.983337,78.650284 
	C584.131348,78.499023 583.154785,78.039482 582.109558,77.234924 
z"/>
<path fill="#CAD5D8" opacity="1.000000" stroke="none" 
	d="
M541.110229,49.233227 
	C541.981262,49.372280 542.920837,49.856674 543.985718,50.649162 
	C543.133606,50.497696 542.156189,50.038136 541.110229,49.233227 
z"/>
<path fill="#CAD5D8" opacity="1.000000" stroke="none" 
	d="
M142.735870,209.057648 
	C142.297195,209.707367 141.503067,210.356003 140.382538,211.049225 
	C140.830887,210.414749 141.605667,209.735657 142.735870,209.057648 
z"/>
<path fill="#CAD5D8" opacity="1.000000" stroke="none" 
	d="
M530.110291,43.233021 
	C530.981323,43.372097 531.920837,43.856522 532.985840,44.649055 
	C532.133789,44.497566 531.156311,44.037968 530.110291,43.233021 
z"/>
<path fill="#CAD5D8" opacity="1.000000" stroke="none" 
	d="
M134.736328,214.057953 
	C134.297607,214.707733 133.503418,215.356339 132.382828,216.049606 
	C132.831223,215.415100 133.606033,214.735931 134.736328,214.057953 
z"/>
<path fill="#CAD5D8" opacity="1.000000" stroke="none" 
	d="
M131.736115,216.057800 
	C131.297501,216.707642 130.503403,217.356308 129.382904,218.049667 
	C129.831223,217.415131 130.605927,216.735886 131.736115,216.057800 
z"/>
<path fill="#CAD5D8" opacity="1.000000" stroke="none" 
	d="
M7.760554,339.133026 
	C7.839740,339.737427 7.584819,340.418182 7.093727,341.264038 
	C7.047187,340.689209 7.236817,339.949310 7.760554,339.133026 
z"/>
<path fill="#CAD5D8" opacity="1.000000" stroke="none" 
	d="
M513.076172,35.171009 
	C513.633362,35.028809 514.224854,35.169949 514.927917,35.598862 
	C514.396484,35.742542 513.753479,35.598446 513.076172,35.171009 
z"/>
<path fill="#CAD5D8" opacity="1.000000" stroke="none" 
	d="
M311.872498,151.905243 
	C311.563477,152.397903 311.086609,152.688156 310.303986,152.902878 
	C310.567047,152.452515 311.135864,152.077667 311.872498,151.905243 
z"/>
<path fill="#CAD5D8" opacity="1.000000" stroke="none" 
	d="
M271.872589,157.905380 
	C271.563507,158.398026 271.086609,158.688217 270.303955,158.902756 
	C270.567078,158.452377 271.135956,158.077652 271.872589,157.905380 
z"/>
<path fill="#CAD5D8" opacity="1.000000" stroke="none" 
	d="
M266.872070,158.904572 
	C266.563354,159.397461 266.086731,159.688034 265.304138,159.903503 
	C265.566833,159.453018 266.135498,159.077637 266.872070,158.904572 
z"/>
<path fill="#CAD5D8" opacity="1.000000" stroke="none" 
	d="
M262.872772,159.905823 
	C262.563568,160.398331 262.086639,160.688354 261.303955,160.902817 
	C261.567139,160.452621 262.136078,160.077972 262.872772,159.905823 
z"/>
<path fill="#CAD5D8" opacity="1.000000" stroke="none" 
	d="
M254.872284,161.905045 
	C254.563461,162.397842 254.086731,162.688232 253.304108,162.903458 
	C253.566956,162.453079 254.135666,162.077850 254.872284,161.905045 
z"/>
<path fill="#CAD5D8" opacity="1.000000" stroke="none" 
	d="
M246.873566,163.907562 
	C246.564102,164.399796 246.086914,164.689331 245.303986,164.903656 
	C245.567444,164.453918 246.136642,164.079376 246.873566,163.907562 
z"/>
<path fill="#CAD5D8" opacity="1.000000" stroke="none" 
	d="
M688.906799,239.126907 
	C689.399353,239.436111 689.689270,239.913116 689.904297,240.695938 
	C689.454346,240.432739 689.079224,239.863724 688.906799,239.126907 
z"/>
<path fill="#CAD5D8" opacity="1.000000" stroke="none" 
	d="
M678.904541,211.146210 
	C679.407043,211.423172 679.706604,211.886520 680.057373,212.654755 
	C679.639587,212.417297 679.170654,211.874924 678.904541,211.146210 
z"/>
<path fill="#CAD5D8" opacity="1.000000" stroke="none" 
	d="
M701.126282,288.104370 
	C701.331726,288.080200 701.625000,288.268585 701.875000,288.723450 
	C701.574707,288.812622 701.368774,288.588257 701.126282,288.104370 
z"/>
<path fill="#CAD5D8" opacity="1.000000" stroke="none" 
	d="
M700.126343,283.104370 
	C700.331726,283.080231 700.624939,283.268585 700.875000,283.723450 
	C700.574707,283.812622 700.368774,283.588257 700.126343,283.104370 
z"/>
<path fill="#CAD5D8" opacity="1.000000" stroke="none" 
	d="
M694.126404,257.103607 
	C694.331970,257.079681 694.625000,257.268372 694.874451,257.723511 
	C694.573975,257.812286 694.368347,257.587708 694.126404,257.103607 
z"/>
<path fill="#CAD5D8" opacity="1.000000" stroke="none" 
	d="
M693.126343,253.103546 
	C693.331970,253.079697 693.625061,253.268402 693.874207,253.723465 
	C693.573425,253.812195 693.367920,253.587616 693.126343,253.103546 
z"/>
<path fill="#CAD5D8" opacity="1.000000" stroke="none" 
	d="
M687.127197,233.100922 
	C687.332825,233.077576 687.625366,233.267365 687.874268,233.723495 
	C687.573608,233.811584 687.368164,233.586334 687.127197,233.100922 
z"/>
<path fill="#CAD5D8" opacity="1.000000" stroke="none" 
	d="
M686.127075,230.101532 
	C686.332520,230.078049 686.625244,230.267578 686.874268,230.723480 
	C686.573669,230.811768 686.368225,230.586655 686.127075,230.101532 
z"/>
</svg>